# AST/ASF file generated using VICON BodyLanguage
# -----------------------------------------------
:version 1.10
:name VICON
:units
  mass 1.0
  length 0.45
  angle deg
:documentation
   .ast/.asf automatically generated from VICON data using
   VICON BodyBuilder and BodyLanguage model FoxedUp or BRILLIANT.MOD
:root
   order TX TY TZ RX RY RZ
   axis XYZ
   position 0 0 0  
   orientation 0 0 0 
:bonedata
  begin
     id 1 
     name lhipjoint
     direction 0.625129 -0.738222 0.253461 
     length 2.5165 
     axis 0 0 0  XYZ
  end
  begin
     id 2 
     name lfemur
     direction 0.34202 -0.939693 0  
     length 7.54288  
     axis 0 0 20  XYZ
    dof rx ry rz
    limits (-160.0 20.0)
           (-70.0 70.0)
           (-60.0 70.0)
  end
  begin
     id 3 
     name ltibia
     direction 0.34202 -0.939693 0   
     length 7.71864   
     axis 0 0 20   XYZ
    dof rx
    limits (-10.0 170.0)
  end
  begin
     id 4 
     name lfoot
     direction 0.0772037 -0.212115 0.97419   
     length 2.18429   
     axis -90 7.62852e-016 20   XYZ
    dof rx rz
    limits (-45.0 90.0)
           (-70.0 20.0)
  end
  begin
     id 5 
     name ltoes
     direction 1.53513e-011 -4.21834e-011 1   
     length 1.09718   
     axis -90 7.62852e-016 20   XYZ
    dof rx
    limits (-90.0 20.0)
  end
  begin
     id 6 
     name rhipjoint
     direction -0.621946 -0.740623 0.254285   
     length 2.50835  
     axis 0 0 0  XYZ 
  end
  begin
     id 7 
     name rfemur
     direction -0.34202 -0.939693 0   
     length 7.43366   
     axis 0 0 -20   XYZ
    dof rx ry rz
    limits (-160.0 20.0)
           (-70.0 70.0)
           (-70.0 60.0)
  end
  begin
     id 8 
     name rtibia
     direction -0.34202 -0.939693 0   
     length 7.77122   
     axis 0 0 -20   XYZ
    dof rx
    limits (-10.0 170.0)
 end
 begin
     id 9 
     name rfoot
     direction -0.082694 -0.2272 0.970331   
     length 2.2293  
     axis -90 -7.62852e-016 -20   XYZ
    dof rx rz
    limits (-45.0 90.0)
           (-20.0 70.0)
  end
  begin
     id 10 
     name rtoes
     direction -1.53565e-011 -4.21695e-011 1   
     length 1.1178   
     axis -90 -7.62852e-016 -20   XYZ
    dof rx
    limits (-90.0 20.0)
  end
  begin
     id 11 
     name lowerback
     direction -0.000695208 0.988391 -0.151929   
     length 1.95077   
     axis 0 0 0   XYZ
    dof rx ry rz
    limits (-20.0 45.0)
           (-30.0 30.0)
           (-30.0 30.0)
  end
  begin
     id 12 
     name upperback
     direction -0.00268925 0.999885 -0.0149203   
     length 1.96246   
     axis 0 0 0   XYZ
    dof rx ry rz
    limits (-20.0 45.0)
           (-30.0 30.0)
           (-30.0 30.0)
  end
  begin
     id 13 
     name thorax
     direction -0.000848408 0.998481 0.0550912   
     length 2.00867   
     axis 0 0 0   XYZ
    dof rx ry rz
    limits (-20.0 45.0)
           (-30.0 30.0)
           (-30.0 30.0)
  end
  begin
     id 14 
     name lowerneck
     direction -0.00577709 0.998999 0.0443608   
     length 1.75762   
     axis 0 0 0   XYZ
    dof rx ry rz
    limits (-20.0 45.0)
           (-30.0 30.0)
           (-30.0 30.0)
  end
  begin
     id 15 
     name upperneck
     direction 0.0320945 0.999136 0.0264105   
     length 1.72601   
     axis 0 0 0   XYZ
    dof rx ry rz
    limits (-20.0 45.0)
           (-30.0 30.0)
           (-30.0 30.0)
  end
  begin
     id 16
     name head
     direction 0.0120552 0.999916 0.00480151  
     length 1.79973  
     axis 0 0 0   XYZ
    dof rx ry rz
    limits (-20.0 45.0)
           (-30.0 30.0)
           (-30.0 30.0)
  end
  begin
     id 17 
     name lclavicle
     direction 0.909 0.371533 -0.188897  
     length 3.47956  
     axis 0 0 0   XYZ
    dof ry rz
    limits (-20.0 10.0)
           (0.0 20.0)
  end
  begin
     id 18 
     name lhumerus
     direction 1 -4.48963e-011 -6.48352e-028   
     length 5.52302   
     axis 180 -30 -90   XYZ
    dof rx ry rz
    limits (-60.0 90.0)
           (-90.0 90.0)
           (-90.0 90.0)
  end
  begin
     id 19
     name lradius
     direction 1 -4.48968e-011 -4.78536e-027   
     length 3.58675   
     axis 180 -30 -90   XYZ
    dof rx
    limits (-10.0 170.0)
  end
  begin
     id 20
     name lwrist
     direction 1 -4.48942e-011 -9.9435e-027   
     length 1.79337   
     axis 8.54312e-015 90 90   XYZ
    dof ry
    limits (-180.0 0.0)
 end
  begin
     id 21 
     name lhand
     direction 1 -4.4904e-011 -1.9887e-026   
     length 0.536412   
     axis 1.26896e-014 90 90   XYZ
    dof rx rz
    limits (-90.0 90.0)
           (-45.0 45.0)
  end
  begin
     id 22 
     name lfingers
     direction 1 -4.48893e-011 -3.9774e-026   
     length 0.432469   
     axis 2.53792e-014 90 90   XYZ
    dof rx
    limits (0.0 90.0)
  end
  begin
     id 23
     name lthumb
     direction 0.707107 -6.34934e-011 0.707107   
     length 0.620942   
     axis -90 45 2.85299e-015   XYZ
    dof rx rz
    limits (-45.0 45.0)
           (-45.0 45.0)
  end
  begin
     id 24 
     name rclavicle
     direction -0.89595 0.416672 -0.153813   
     length 3.44099  
     axis 0 0 0   XYZ 
    dof ry rz
    limits (-10.0 20.0)
           (-20.0 0.0)
  end
  begin
     id 25 
     name rhumerus
     direction -1 -4.48952e-011 5.57804e-028  
     length 5.8478   
     axis 180 30 90   XYZ
    dof rx ry rz
    limits (-90.0 60.0)
           (-90.0 90.0)
           (-90.0 90.0)
  end
  begin
     id 26 
     name rradius
     direction -1 -4.48967e-011 -7.93646e-027   
     length 3.62717   
     axis 180 30 90   XYZ
    dof rx
    limits (-10.0 170.0)
  end
  begin
     id 27 
     name rwrist
     direction -1 -4.49008e-011 -9.9435e-027   
     length 1.81359   
     axis 8.54312e-015 -90 -90   XYZ
    dof ry
    limits (-180.0 0.0)
  end
  begin
     id 28
     name rhand
     direction -1 -4.48812e-011 -1.9887e-026   
     length 0.650516   
     axis 1.26896e-014 -90 -90   XYZ
    dof rx rz
    limits (-90.0 90.0)
           (-45.0 45.0)
  end
  begin
     id 29
     name rfingers
     direction -1 -4.49228e-011 -3.9774e-026   
     length 0.524463   
     axis 2.53792e-014 -90 -90   XYZ
    dof rx
    limits (0.0 90.0)
  end
  begin
     id 30
     name rthumb
     direction -0.707107 -6.34912e-011 0.707107   
     length 0.753027   
     axis -90 -45 -2.85299e-015   XYZ
    dof rx rz
    limits (-45.0 45.0)
           (-45.0 45.0)
  end
:hierarchy
  begin
    root lhipjoint rhipjoint lowerback
    lhipjoint lfemur
    lfemur ltibia
    ltibia lfoot
    lfoot ltoes
    rhipjoint rfemur
    rfemur rtibia
    rtibia rfoot
    rfoot rtoes
    lowerback upperback
    upperback thorax
    thorax lowerneck lclavicle rclavicle
    lowerneck upperneck
    upperneck head
    lclavicle lhumerus
    lhumerus lradius
    lradius lwrist
    lwrist lhand lthumb
    lhand lfingers
    rclavicle rhumerus
    rhumerus rradius
    rradius rwrist
    rwrist rhand rthumb
    rhand rfingers
  end

#!OML:ASF F:\VICON\USERDATA\INSTALL\rory3\rory3.ASF
:FULLY-SPECIFIED
:DEGREES
180
root -5.99207 18.2378 3.81719 0.337007 -21.2438 -2.75762
lowerback 11.2418 -1.23857 3.78173
upperback 1.81503 -1.16818 0.730839
thorax -4.46386 -0.636051 -1.19286
lowerneck -2.77793 2.13431 0.991911
upperneck 8.7736 2.80926 -0.29592
head 3.32245 1.40576 -0.163774
rclavicle 6.21948e-014 1.33683e-014
rhumerus -33.9493 -10.425 -77.5655
rradius 20.332
rwrist 21.8666
rhand -18.4543 13.659
rfingers 7.12502
rthumb 7.83182 -16.176
lclavicle 6.21948e-014 1.33683e-014
lhumerus -20.4535 10.202 83.3431
lradius 17.3632
lwrist 1.66208
lhand -34.5144 26.0459
lfingers 7.12502
lthumb -7.67611 55.8866
rfemur -7.7417 7.67396 24.7
rtibia 23.2393
rfoot -5.12798 -10.9514
rtoes -9.13452
lfemur -12.5615 4.50977 -17.1162
ltibia 63.6789
lfoot 1.81813 3.78774
ltoes -20.7019
181
root -6.05479 18.2332 3.94966 0.478378 -21.2965 -3.10173
lowerback 11.5006 -1.00978 4.13301
upperback 1.71398 -0.805585 0.738735
thorax -4.69979 -0.467647 -1.43282
lowerneck -2.81623 1.97347 0.960981
upperneck 8.89743 2.58264 -0.147883
head 3.36792 1.29808 -0.117731
rclavicle 5.87657e-015 1.20762e-014
rhumerus -33.8193 -9.73038 -77.9112
rradius 21.0426
rwrist 21.246
rhand -18.2108 14.1652
rfingers 7.12502
rthumb 8.06692 -15.6609
lclavicle 5.87657e-015 1.20762e-014
lhumerus -21.0781 9.53414 83.6514
lradius 16.5819
lwrist 3.33076
lhand -37.8086 22.928
lfingers 7.12502
lthumb -10.8547 52.6275
rfemur -7.30604 7.74751 25.1634
rtibia 23.3409
rfoot -5.1774 -11.0025
rtoes -9.73576
lfemur -13.6654 4.96885 -16.8701
ltibia 63.8241
lfoot 0.561533 3.61377
ltoes -19.9926
182
root -6.11469 18.2421 4.09578 0.685717 -21.3185 -3.37663
lowerback 11.4091 -0.890289 4.44669
upperback 1.69621 -0.612162 0.755112
thorax -4.6598 -0.376944 -1.6229
lowerneck -2.99153 1.91111 0.893595
upperneck 9.06141 2.49416 -0.0613175
head 3.4555 1.2553 -0.0783334
rclavicle -2.44505e-014 3.77691e-015
rhumerus -33.5657 -8.331 -78.4859
rradius 21.9326
rwrist 20.1032
rhand -18.0929 14.2332
rfingers 7.12502
rthumb 8.18068 -15.5885
lclavicle -2.44505e-014 3.77691e-015
lhumerus -21.4729 9.18537 83.8155
lradius 15.5634
lwrist 5.178
lhand -39.7521 22.2216
lfingers 7.12502
lthumb -12.7288 51.8137
rfemur -6.9135 7.77705 25.4893
rtibia 23.5781
rfoot -5.66468 -10.8596
rtoes -8.40715
lfemur -14.8375 5.29297 -16.7368
ltibia 63.7671
lfoot -0.488984 3.38381
ltoes -18.6707
183
root -6.17136 18.2479 4.24324 0.759488 -21.3233 -3.52133
lowerback 11.3089 -0.80437 4.60647
upperback 1.75276 -0.486203 0.765661
thorax -4.53816 -0.314321 -1.72221
lowerneck -2.78303 1.80666 0.912667
upperneck 8.7028 2.36643 -0.185662
head 3.29262 1.18837 -0.131305
rclavicle -2.2531e-014 -4.52235e-015
rhumerus -33.1675 -6.94407 -79.0548
rradius 22.7922
rwrist 19.0888
rhand -18.9198 17.4693
rfingers 7.12502
rthumb 7.38257 -12.3819
lclavicle -2.2531e-014 -4.52235e-015
lhumerus -22.0768 8.94916 83.9167
lradius 14.8416
lwrist 6.75114
lhand -39.6548 25.185
lfingers 7.12502
lthumb -12.635 54.7829
rfemur -6.43645 7.7383 25.672
rtibia 23.8427
rfoot -6.18423 -10.5373
rtoes -7.04801
lfemur -15.8954 5.65123 -16.753
ltibia 63.5114
lfoot -1.44849 3.26311
ltoes -18.9785
184
root -6.22889 18.2426 4.37965 0.809092 -21.4326 -3.66872
lowerback 11.3744 -0.636327 4.73472
upperback 1.78224 -0.247338 0.726459
thorax -4.52867 -0.198285 -1.8714
lowerneck -2.76304 1.7188 1.10636
upperneck 8.62415 2.2493 -0.322518
head 3.26577 1.13168 -0.214246
rclavicle 3.89338e-014 8.10048e-015
rhumerus -32.6544 -6.67091 -79.2347
rradius 23.2649
rwrist 18.969
rhand -20.9361 27.5477
rfingers 7.12502
rthumb 5.43609 -2.36262
lclavicle 3.89338e-014 8.10048e-015
lhumerus -22.8942 8.55403 84.0673
lradius 14.244
lwrist 7.64217
lhand -39.1548 29.0798
lfingers 7.12502
lthumb -12.1529 58.7069
rfemur -6.03171 7.89731 25.8894
rtibia 24.1375
rfoot -6.3986 -10.8193
rtoes -7.87802
lfemur -16.9184 6.06905 -16.7431
ltibia 63.1044
lfoot -2.2216 3.14052
ltoes -19.7582
185
root -6.28944 18.2389 4.51783 0.837442 -21.5 -3.73714
lowerback 11.4495 -0.450336 4.7693
upperback 1.7568 0.00676704 0.686614
thorax -4.5798 -0.0752513 -1.97098
lowerneck -2.96759 1.6326 1.15804
upperneck 9.01808 2.1266 -0.305366
head 3.44086 1.07311 -0.218871
rclavicle -5.38621e-014 -1.68967e-014
rhumerus -32.1399 -6.58354 -79.2331
rradius 23.4663
rwrist 18.7743
rhand -21.1471 26.7021
rfingers 7.12502
rthumb 5.23233 -3.21326
lclavicle -5.38621e-014 -1.68967e-014
lhumerus -23.8365 8.12585 84.3323
lradius 13.8181
lwrist 8.65467
lhand -37.9969 33.2146
lfingers 7.12502
lthumb -11.0362 62.9045
rfemur -5.68071 8.02062 26.0225
rtibia 24.5106
rfoot -6.68642 -10.8576
rtoes -8.65545
lfemur -17.9351 6.28495 -16.7812
ltibia 62.5026
lfoot -2.96603 3.06179
ltoes -18.9982
186
root -6.34885 18.2316 4.6553 0.892209 -21.5086 -3.80242
lowerback 11.6005 -0.313192 4.73118
upperback 1.68035 0.195522 0.685438
thorax -4.73101 0.0140027 -1.97986
lowerneck -3.02298 1.5397 1.04986
upperneck 9.1865 1.99546 -0.163489
head 3.50568 1.0101 -0.157744
rclavicle 4.23745e-014 -9.63484e-015
rhumerus -31.8047 -5.97877 -79.3273
rradius 24.003
rwrist 18.2973
rhand -14.0281 21.8899
rfingers 7.12502
rthumb 12.102 -7.74011
lclavicle 4.23745e-014 -9.63484e-015
lhumerus -24.8 7.78148 84.4868
lradius 13.3912
lwrist 10.9894
lhand -37.4545 35.1986
lfingers 7.12502
lthumb -10.513 64.9157
rfemur -5.40407 8.17534 26.155
rtibia 24.8847
rfoot -6.70185 -10.8393
rtoes -9.92895
lfemur -18.936 6.42539 -16.8195
ltibia 61.7458
lfoot -3.87107 3.11599
ltoes -18.9073
187
root -6.40324 18.2252 4.79394 1.13739 -21.3703 -4.01009
lowerback 11.5796 -0.327621 4.80149
upperback 1.53639 0.19596 0.807114
thorax -4.87117 0.00885123 -1.89189
lowerneck -2.62777 1.5302 0.843939
upperneck 9.06386 2.00112 -0.19111
head 3.38465 1.00488 -0.134541
rclavicle -4.4329e-014 -1.83255e-014
rhumerus -31.6496 -4.74709 -79.5023
rradius 24.8109
rwrist 17.3616
rhand -15.3954 18.7906
rfingers 7.12502
rthumb 10.7834 -10.9126
lclavicle -4.4329e-014 -1.83255e-014
lhumerus -25.9095 7.79068 84.5997
lradius 13.133
lwrist 13.7136
lhand -37.4951 36.1741
lfingers 7.12502
lthumb -10.5522 65.8892
rfemur -5.21969 8.05428 26.3912
rtibia 25.1381
rfoot -6.48146 -10.6689
rtoes -12.0166
lfemur -20.0198 6.44516 -16.776
ltibia 60.8099
lfoot -5.04415 3.29035
ltoes -20.0224
188
root -6.45742 18.2283 4.94025 1.2682 -21.2724 -4.09816
lowerback 11.4659 -0.43872 4.62449
upperback 1.32664 0.0414531 1.059
thorax -5.03993 -0.0680113 -1.50375
lowerneck -1.52507 1.65273 0.201003
upperneck 8.71023 2.20093 -0.188463
head 3.04605 1.08356 -0.0274587
rclavicle -5.78339e-015 -5.86415e-015
rhumerus -31.5557 -3.02918 -79.5729
rradius 25.3891
rwrist 15.9828
rhand -17.386 12.4041
rfingers 7.12502
rthumb 8.86287 -17.3898
lclavicle -5.78339e-015 -5.86415e-015
lhumerus -27.2566 8.29199 84.7502
lradius 13.0104
lwrist 16.1689
lhand -37.4356 37.1482
lfingers 7.12502
lthumb -10.4949 66.8662
rfemur -4.85839 7.63381 26.4578
rtibia 25.3268
rfoot -6.55756 -10.1607
rtoes -13.8053
lfemur -20.8931 6.40976 -16.849
ltibia 59.6147
lfoot -5.09261 3.33037
ltoes -17.7389
189
root -6.51026 18.2319 5.08819 1.35506 -21.2659 -4.32188
lowerback 11.5136 -0.417681 4.81212
upperback 1.25456 0.101917 1.11925
thorax -5.13869 -0.0445756 -1.5553
lowerneck -1.1056 1.67474 -0.0733533
upperneck 8.49624 2.22869 -0.0351367
head 2.88924 1.09456 0.06419
rclavicle 4.02042e-014 3.37934e-015
rhumerus -31.2445 -2.39484 -79.5748
rradius 25.9149
rwrist 15.3669
rhand -18.2795 8.57598
rfingers 7.12502
rthumb 8.00056 -21.2526
lclavicle 4.02042e-014 3.37934e-015
lhumerus -28.3286 8.23452 84.8137
lradius 12.7918
lwrist 18.2473
lhand -37.575 36.6521
lfingers 7.12502
lthumb -10.6294 66.3633
rfemur -4.31418 7.48013 26.6971
rtibia 25.373
rfoot -6.62854 -9.86576
rtoes -15.7084
lfemur -21.5852 6.29642 -16.7331
ltibia 58.215
lfoot -5.48785 3.50702
ltoes -16.8163
190
root -6.56259 18.2299 5.23084 1.4189 -21.1907 -4.44142
lowerback 11.673 -0.390602 4.81503
upperback 1.33349 0.14463 1.12121
thorax -5.14152 -0.0227718 -1.56183
lowerneck -1.59645 1.6597 0.00855398
upperneck 8.58026 2.20822 -0.0465712
head 3.01073 1.08646 0.051462
rclavicle 4.28629e-015 2.00276e-014
rhumerus -30.5448 -2.18864 -79.57
rradius 26.6256
rwrist 15.5407
rhand -19.5608 11.1394
rfingers 7.12502
rthumb 6.76378 -18.7326
lclavicle 4.28629e-015 2.00276e-014
lhumerus -29.0135 8.12435 84.8817
lradius 12.3438
lwrist 19.8781
lhand -38.0817 36.7152
lfingers 7.12502
lthumb -11.1181 66.4007
rfemur -3.73964 7.61345 26.8917
rtibia 25.2425
rfoot -6.57006 -9.8444
rtoes -16.5521
lfemur -22.2059 6.00316 -16.7216
ltibia 56.5782
lfoot -6.01034 3.87179
ltoes -16.8278
